<svg xmlns="http://www.w3.org/2000/svg" width="830" height="287"><polyline points="44.0 248.5 43.5 248.0 43.0 247.5 42.0 247.5 41.0 247.5 40.0 247.5 39.0 247.5 38.5 247.0 38.0 246.5 37.0 246.5 36.0 246.5 35.0 246.5 34.5 246.0 34.0 245.5 33.0 245.5 32.5 245.0 32.0 244.5 31.0 244.5 30.5 244.0 30.0 243.5 29.5 243.0 29.0 242.5 28.5 242.0 28.0 241.5 27.5 241.0 27.0 240.5 26.5 240.0 26.0 239.5 25.5 239.0 25.0 238.5 24.5 238.0 24.5 237.0 24.0 236.5 23.5 236.0 23.0 235.5 22.5 235.0 22.5 234.0 22.0 233.5 21.5 233.0 21.5 232.0 21.5 231.0 21.5 230.0 21.0 229.5 20.5 229.0 20.5 228.0 20.5 227.0 20.5 226.0 20.5 225.0 20.5 224.0 20.5 223.0 20.5 222.0 20.5 221.0 20.5 220.0 20.5 219.0 20.5 218.0 20.5 217.0 20.5 216.0 20.5 215.0 20.5 214.0 20.5 213.0 20.5 212.0 20.5 211.0 20.5 210.0 20.5 209.0 20.5 208.0 20.5 207.0 20.5 206.0 20.5 205.0 20.5 204.0 20.5 203.0 20.5 202.0 20.5 201.0 20.5 200.0 20.5 199.0 20.5 198.0 20.5 197.0 20.5 196.0 20.5 195.0 20.5 194.0 20.5 193.0 20.5 192.0 20.5 191.0 20.5 190.0 20.5 189.0 20.5 188.0 20.5 187.0 20.5 186.0 20.5 185.0 20.5 184.0 20.5 183.0 20.5 182.0 20.5 181.0 20.5 180.0 20.5 179.0 20.5 178.0 20.5 177.0 20.5 176.0 20.5 175.0 20.5 174.0 20.5 173.0 20.5 172.0 20.5 171.0 20.5 170.0 20.5 169.0 20.5 168.0 20.5 167.0 20.5 166.0 20.5 165.0 20.5 164.0 20.5 163.0 20.5 162.0 20.5 161.0 20.5 160.0 20.5 159.0 20.5 158.0 20.5 157.0 20.5 156.0 20.5 155.0 20.5 154.0 20.5 153.0 20.5 152.0 20.5 151.0 20.5 150.0 20.5 149.0 20.5 148.0 20.5 147.0 20.5 146.0 20.5 145.0 20.5 144.0 20.5 143.0 20.5 142.0 20.5 141.0 20.5 140.0 20.5 139.0 20.5 138.0 20.5 137.0 20.5 136.0 20.5 135.0 20.5 134.0 20.5 133.0 20.5 132.0 20.5 131.0 20.5 130.0 20.5 129.0 20.5 128.0 20.5 127.0 20.5 126.0 20.5 125.0 20.5 124.0 20.5 123.0 20.5 122.0 20.5 121.0 20.5 120.0 20.5 119.0 20.5 118.0 20.5 117.0 20.5 116.0 20.5 115.0 20.5 114.0 20.5 113.0 20.5 112.0 20.5 111.0 20.5 110.0 20.5 109.0 20.5 108.0 20.5 107.0 20.5 106.0 20.5 105.0 20.5 104.0 20.5 103.0 20.5 102.0 20.5 101.0 20.5 100.0 20.5 99.0 20.5 98.0 20.5 97.0 20.5 96.0 20.5 95.0 20.5 94.0 20.5 93.0 20.5 92.0 20.5 91.0 20.5 90.0 20.5 89.0 20.5 88.0 20.5 87.0 20.5 86.0 20.5 85.0 20.5 84.0 20.5 83.0 20.5 82.0 20.5 81.0 20.5 80.0 20.5 79.0 20.5 78.0 20.5 77.0 20.5 76.0 20.5 75.0 20.5 74.0 20.5 73.0 20.5 72.0 20.5 71.0 20.5 70.0 20.5 69.0 20.5 68.0 20.5 67.0 20.5 66.0 20.5 65.0 20.5 64.0 20.5 63.0 20.5 62.0 20.5 61.0 21.0 60.5 21.5 60.0 21.5 59.0 21.5 58.0 21.5 57.0 22.0 56.5 22.5 56.0 23.0 55.5 23.5 55.0 23.5 54.0 24.0 53.5 24.5 53.0 25.0 52.5 25.5 52.0 26.0 51.5 26.5 51.0 26.5 50.0 27.0 49.5 27.5 49.0 28.0 48.5 28.5 48.0 29.0 47.5 30.0 47.5 30.5 47.0 31.0 46.5 32.0 46.5 32.5 46.0 33.0 45.5 33.5 45.0 34.0 44.5 35.0 44.5 35.5 44.0 36.0 43.5 37.0 43.5 38.0 43.5 38.5 43.0 39.0 42.5 40.0 42.5 41.0 42.5 42.0 42.5 43.0 42.5 44.0 42.5 45.0 42.5 46.0 42.5 47.0 42.5 48.0 42.5 49.0 42.5 49.5 43.0 50.0 43.5 51.0 43.5 51.5 44.0 52.0 44.5 53.0 44.5 53.5 45.0 54.0 45.5 55.0 45.5 55.5 46.0 56.0 46.5 56.5 47.0 57.0 47.5 58.0 47.5 58.5 48.0 59.0 48.5 60.0 48.5 60.5 49.0 60.5 50.0 61.0 50.5 61.5 51.0 62.0 51.5 62.5 52.0 63.0 52.5 63.5 53.0 63.5 54.0 64.0 54.5 64.5 55.0 64.5 56.0 65.0 56.5 65.5 57.0 66.0 57.5 66.5 58.0 66.5 59.0 66.5 60.0 67.0 60.5 67.5 61.0 67.5 62.0 67.5 63.0 67.5 64.0 67.5 65.0 67.5 66.0 67.5 67.0 67.5 68.0 67.5 69.0 67.5 70.0 67.5 71.0 67.5 72.0 67.5 73.0 67.5 74.0 67.5 75.0 67.5 76.0 67.5 77.0 67.5 78.0 67.5 79.0 67.5 80.0 67.5 81.0 67.5 82.0 67.5 83.0 67.5 84.0 67.5 85.0 67.5 86.0 67.5 87.0 67.5 88.0 67.5 89.0 67.5 90.0 67.5 91.0 67.5 92.0 67.5 93.0 67.5 94.0 67.5 95.0 67.5 96.0 67.5 97.0 67.5 98.0 67.5 99.0 67.5 100.0 68.0 100.5 68.5 101.0 68.5 102.0 69.0 102.5 69.5 103.0 70.0 103.5 70.5 103.0 71.0 102.5 71.5 102.0 72.0 101.5 72.5 101.0 72.5 100.0 73.0 99.5 73.5 99.0 74.0 98.5 74.5 98.0 75.0 97.5 75.5 97.0 76.0 96.5 76.5 96.0 77.0 95.5 77.5 95.0 77.5 94.0 78.0 93.5 78.5 93.0 79.0 92.5 79.5 92.0 80.0 91.5 80.5 91.0 81.0 90.5 81.5 90.0 82.0 89.5 82.5 89.0 82.5 88.0 83.0 87.5 83.5 87.0 84.0 86.5 84.5 86.0 85.0 85.5 85.5 85.0 86.0 84.5 86.5 84.0 87.0 83.5 87.5 83.0 88.0 82.5 88.5 82.0 88.5 81.0 89.0 80.5 89.5 80.0 90.0 79.5 90.5 79.0 91.0 78.5 91.5 78.0 92.0 77.5 92.5 77.0 93.0 76.5 93.5 76.0 93.5 75.0 94.0 74.5 94.5 74.0 95.0 73.5 95.5 73.0 96.0 72.5 96.5 72.0 97.0 71.5 97.5 71.0 97.5 70.0 98.0 69.5 98.5 69.0 99.0 68.5 99.5 68.0 100.0 67.5 100.5 67.0 101.0 66.5 101.5 66.0 102.0 65.5 102.5 65.0 103.0 64.5 103.5 64.0 103.5 63.0 104.0 62.5 104.5 62.0 105.0 61.5 105.5 61.0 105.5 60.0 106.0 59.5 106.5 59.0 107.0 58.5 107.5 58.0 108.0 57.5 108.5 57.0 109.0 56.5 109.5 56.0 110.0 55.5 110.5 55.0 110.5 54.0 111.0 53.5 111.5 53.0 112.0 52.5 113.0 52.5 113.5 52.0 114.0 51.5 114.5 51.0 114.5 50.0 115.0 49.5 115.5 49.0 116.0 48.5 116.5 48.0 117.0 47.5 118.0 47.5 118.5 47.0 119.0 46.5 120.0 46.5 120.5 46.0 121.0 45.5 121.5 45.0 122.0 44.5 123.0 44.5 123.5 44.0 124.0 43.5 125.0 43.5 126.0 43.5 126.5 43.0 127.0 42.5 128.0 42.5 129.0 42.5 130.0 42.5 131.0 42.5 132.0 42.5 133.0 42.5 134.0 42.5 135.0 42.5 136.0 42.5 136.5 43.0 137.0 43.5 138.0 43.5 139.0 43.5 139.5 44.0 140.0 44.5 141.0 44.5 141.5 45.0 142.0 45.5 143.0 45.5 143.5 46.0 144.0 46.5 145.0 46.5 145.5 47.0 146.0 47.5 146.5 48.0 147.0 48.5 147.5 49.0 148.0 49.5 148.5 50.0 149.0 50.5 149.5 51.0 150.0 51.5 150.5 52.0 151.0 52.5 151.5 53.0 151.5 54.0 152.0 54.5 152.5 55.0 152.5 56.0 152.5 57.0 153.0 57.5 153.5 58.0 154.0 58.5 154.5 59.0 154.5 60.0 155.0 60.5 155.5 61.0 155.5 62.0 155.5 63.0 155.5 64.0 155.5 65.0 155.5 66.0 155.5 67.0 155.5 68.0 155.5 69.0 155.5 70.0 155.5 71.0 155.0 71.5 154.5 72.0 154.5 73.0 154.0 73.5 153.5 74.0 153.0 74.5 152.5 75.0 152.5 76.0 152.5 77.0 152.0 77.5 151.5 78.0 151.5 79.0 151.0 79.5 150.5 80.0 150.0 80.5 149.5 81.0 149.5 82.0 149.0 82.5 148.0 82.5 147.5 83.0 147.5 84.0 147.0 84.5 146.5 85.0 146.0 85.5 145.5 86.0 145.5 87.0 145.0 87.5 144.5 88.0 144.0 88.5 143.5 89.0 143.0 89.5 142.0 89.5 141.5 90.0 141.5 91.0 141.0 91.5 140.5 92.0 140.5 93.0 140.0 93.5 139.5 94.0 139.0 94.5 138.0 94.5 137.5 95.0 137.0 95.5 136.5 96.0 136.5 97.0 136.0 97.5 135.5 98.0 135.0 98.5 134.5 99.0 134.0 99.5 133.5 100.0 133.0 100.5 132.5 101.0 132.0 101.5 131.5 102.0 131.5 103.0 131.0 103.5 130.5 104.0 130.0 104.5 129.5 105.0 129.0 105.5 128.5 106.0 128.0 106.5 127.5 107.0 127.0 107.5 126.5 108.0 126.5 109.0 126.0 109.5 125.5 110.0 125.0 110.5 124.5 111.0 124.0 111.5 123.5 112.0 123.5 113.0 123.0 113.5 122.0 113.5 121.5 114.0 121.0 114.5 120.5 115.0 120.5 116.0 120.0 116.5 119.5 117.0 119.0 117.5 118.5 118.0 118.5 119.0 118.0 119.5 117.0 119.5 116.5 120.0 116.0 120.5 115.5 121.0 115.5 122.0 115.0 122.5 114.5 123.0 114.0 123.5 113.5 124.0 113.0 124.5 112.5 125.0 112.0 125.5 111.5 126.0 111.0 126.5 110.5 127.0 110.0 127.5 109.5 128.0 109.5 129.0 109.0 129.5 108.5 130.0 108.0 130.5 107.5 131.0 107.0 131.5 106.5 132.0 106.0 132.5 105.5 133.0 105.0 133.5 104.5 134.0 104.5 135.0 104.0 135.5 103.5 136.0 103.0 136.5 102.5 137.0 102.0 137.5 101.5 138.0 101.0 138.5 100.5 139.0 100.5 140.0 100.0 140.5 99.5 141.0 99.0 141.5 98.5 142.0 98.0 142.5 97.5 143.0 97.5 144.0 97.5 145.0 97.5 146.0 98.0 146.5 98.5 147.0 98.5 148.0 98.5 149.0 99.0 149.5 99.5 150.0 100.0 150.5 100.5 151.0 101.0 151.5 101.5 152.0 102.0 152.5 102.5 153.0 103.0 153.5 103.5 154.0 103.5 155.0 104.0 155.5 104.5 156.0 105.0 156.5 105.5 157.0 106.0 157.5 106.5 158.0 107.0 158.5 107.5 159.0 107.5 160.0 108.0 160.5 108.5 161.0 109.0 161.5 109.5 162.0 110.0 162.5 110.5 163.0 110.5 164.0 111.0 164.5 111.5 165.0 112.0 165.5 112.5 166.0 113.0 166.5 113.5 167.0 114.0 167.5 114.5 168.0 115.0 168.5 115.5 169.0 115.5 170.0 116.0 170.5 116.5 171.0 117.0 171.5 118.0 171.5 118.5 172.0 119.0 172.5 119.5 173.0 119.5 174.0 120.0 174.5 120.5 175.0 121.0 175.5 121.5 176.0 122.0 176.5 122.5 177.0 123.0 177.5 123.5 178.0 124.0 178.5 124.5 179.0 124.5 180.0 125.0 180.5 125.5 181.0 126.0 181.5 126.5 182.0 127.0 182.5 127.5 183.0 128.0 183.5 128.5 184.0 129.0 184.5 129.5 185.0 129.5 186.0 130.0 186.5 130.5 187.0 131.0 187.5 131.5 188.0 132.0 188.5 132.5 189.0 133.0 189.5 133.5 190.0 134.0 190.5 134.5 191.0 134.5 192.0 135.0 192.5 135.5 193.0 136.0 193.5 136.5 194.0 137.0 194.5 137.5 195.0 138.0 195.5 138.5 196.0 139.0 196.5 139.5 197.0 140.0 197.5 140.5 198.0 140.5 199.0 141.0 199.5 141.5 200.0 142.0 200.5 142.5 201.0 143.0 201.5 143.5 202.0 144.0 202.5 144.5 203.0 145.0 203.5 145.5 204.0 145.5 205.0 146.0 205.5 146.5 206.0 147.0 206.5 147.5 207.0 147.5 208.0 148.0 208.5 149.0 208.5 149.5 209.0 150.0 209.5 150.5 210.0 150.5 211.0 151.0 211.5 151.5 212.0 151.5 213.0 152.0 213.5 152.5 214.0 152.5 215.0 153.0 215.5 153.5 216.0 153.5 217.0 154.0 217.5 154.5 218.0 154.5 219.0 154.5 220.0 155.0 220.5 155.5 221.0 155.5 222.0 155.5 223.0 155.5 224.0 155.5 225.0 155.5 226.0 155.5 227.0 155.5 228.0 155.0 228.5 154.5 229.0 154.5 230.0 154.5 231.0 154.5 232.0 154.0 232.5 153.5 233.0 153.0 233.5 152.5 234.0 152.5 235.0 152.0 235.5 151.5 236.0 151.5 237.0 151.5 238.0 151.0 238.5 150.5 239.0 150.0 239.5 149.5 240.0 149.0 240.5 148.0 240.5 147.5 241.0 147.0 241.5 146.5 242.0 146.5 243.0 146.0 243.5 145.5 244.0 145.0 244.5 144.0 244.5 143.5 245.0 143.0 245.5 142.0 245.5 141.0 245.5 140.5 246.0 140.0 246.5 139.0 246.5 138.0 246.5 137.5 247.0 137.0 247.5 136.0 247.5 135.0 247.5 134.0 247.5 133.0 247.5 132.0 247.5 131.0 247.5 130.0 247.5 129.0 247.5 128.0 247.5 127.0 247.5 126.5 247.0 126.0 246.5 125.0 246.5 124.0 246.5 123.0 246.5 122.5 246.0 122.0 245.5 121.0 245.5 120.5 245.0 120.0 244.5 119.0 244.5 118.5 244.0 118.0 243.5 117.5 243.0 117.0 242.5 116.5 242.0 116.0 241.5 115.5 241.0 115.0 240.5 114.5 240.0 114.0 239.5 113.5 239.0 113.0 238.5 112.5 238.0 112.0 237.5 111.5 237.0 111.0 236.5 110.5 236.0 110.0 235.5 109.5 235.0 109.0 234.5 108.5 234.0 108.5 233.0 108.0 232.5 107.5 232.0 107.0 231.5 106.5 231.0 106.0 230.5 105.5 230.0 105.0 229.5 104.5 229.0 104.0 228.5 103.5 228.0 103.5 227.0 103.0 226.5 102.5 226.0 102.0 225.5 101.5 225.0 101.0 224.5 100.5 224.0 100.0 223.5 99.5 223.0 99.0 222.5 98.5 222.0 98.5 221.0 98.0 220.5 97.5 220.0 97.0 219.5 96.5 219.0 96.0 218.5 95.5 218.0 95.0 217.5 94.5 217.0 94.0 216.5 93.5 216.0 93.5 215.0 93.0 214.5 92.5 214.0 92.0 213.5 91.5 213.0 91.0 212.5 90.5 212.0 90.0 211.5 89.5 211.0 89.0 210.5 88.5 210.0 88.5 209.0 88.0 208.5 87.5 208.0 87.0 207.5 86.5 207.0 86.0 206.5 85.5 206.0 85.0 205.5 84.5 205.0 84.0 204.5 83.5 204.0 83.0 203.5 82.5 203.0 82.5 202.0 82.0 201.5 81.5 201.0 81.0 200.5 80.5 200.0 80.0 199.5 79.5 199.0 79.0 198.5 78.5 198.0 78.0 197.5 77.5 197.0 77.5 196.0 77.0 195.5 76.5 195.0 76.0 194.5 75.5 194.0 75.0 193.5 74.5 193.0 74.0 192.5 73.5 192.0 73.0 191.5 72.5 191.0 72.5 190.0 72.0 189.5 71.5 189.0 71.0 188.5 70.5 188.0 70.0 187.5 69.5 188.0 69.0 188.5 68.5 189.0 68.0 189.5 67.5 190.0 67.5 191.0 67.5 192.0 67.5 193.0 67.5 194.0 67.5 195.0 67.5 196.0 67.5 197.0 67.5 198.0 67.5 199.0 67.5 200.0 67.5 201.0 67.5 202.0 67.5 203.0 67.5 204.0 67.5 205.0 67.5 206.0 67.5 207.0 67.5 208.0 67.5 209.0 67.5 210.0 67.5 211.0 67.5 212.0 67.5 213.0 67.5 214.0 67.5 215.0 67.5 216.0 67.5 217.0 67.5 218.0 67.5 219.0 67.5 220.0 67.5 221.0 67.5 222.0 67.5 223.0 67.5 224.0 67.5 225.0 67.5 226.0 67.5 227.0 67.5 228.0 67.5 229.0 67.0 229.5 66.5 230.0 66.5 231.0 66.5 232.0 66.5 233.0 66.0 233.5 65.5 234.0 65.0 234.5 64.5 235.0 64.0 235.5 63.5 236.0 63.5 237.0 63.0 237.5 62.5 238.0 62.5 239.0 62.0 239.5 61.5 240.0 61.0 240.5 60.5 241.0 60.0 241.5 59.0 241.5 58.5 242.0 58.0 242.5 57.5 243.0 57.0 243.5 56.5 244.0 56.0 244.5 55.5 245.0 55.0 245.5 54.0 245.5 53.0 245.5 52.5 246.0 52.0 246.5 51.0 246.5 50.0 246.5 49.5 247.0 49.0 247.5 48.0 247.5 47.0 247.5 46.0 247.5 45.0 247.5 44.5 248.0 44.0 248.5" fill="none" stroke="black" /><polyline points="223.0 247.5 222.0 247.5 221.0 247.5 220.0 247.5 219.0 247.5 218.0 247.5 217.0 247.5 216.0 247.5 215.0 247.5 214.0 247.5 213.0 247.5 212.5 247.0 212.0 246.5 211.0 246.5 210.0 246.5 209.0 246.5 208.5 246.0 208.0 245.5 207.0 245.5 206.5 245.0 206.0 244.5 205.0 244.5 204.5 244.0 204.0 243.5 203.5 243.0 203.0 242.5 202.5 242.0 202.0 241.5 201.5 241.0 201.0 240.5 200.5 240.0 200.0 239.5 199.0 239.5 198.5 239.0 198.5 238.0 198.0 237.5 197.5 237.0 197.5 236.0 197.5 235.0 197.0 234.5 196.5 234.0 196.5 233.0 196.5 232.0 196.0 231.5 195.5 231.0 195.5 230.0 195.5 229.0 195.0 228.5 194.5 228.0 194.5 227.0 194.5 226.0 194.5 225.0 194.5 224.0 194.5 223.0 194.5 222.0 194.5 221.0 195.0 220.5 195.5 220.0 195.5 219.0 195.5 218.0 196.0 217.5 196.5 217.0 196.5 216.0 196.5 215.0 196.5 214.0 197.0 213.5 197.5 213.0 197.5 212.0 197.5 211.0 197.5 210.0 198.0 209.5 198.5 209.0 198.5 208.0 198.5 207.0 199.0 206.5 199.5 206.0 199.5 205.0 200.0 204.5 200.5 204.0 201.0 203.5 201.5 203.0 201.5 202.0 202.0 201.5 202.5 201.0 202.5 200.0 202.5 199.0 202.5 198.0 202.5 197.0 203.0 196.5 203.5 196.0 203.5 195.0 203.5 194.0 204.0 193.5 204.5 193.0 204.5 192.0 204.5 191.0 205.0 190.5 205.5 190.0 206.0 189.5 206.5 189.0 206.5 188.0 206.5 187.0 207.0 186.5 207.5 186.0 207.5 185.0 207.5 184.0 208.0 183.5 208.5 183.0 208.5 182.0 208.5 181.0 208.5 180.0 209.0 179.5 209.5 179.0 209.5 178.0 210.0 177.5 210.5 177.0 210.5 176.0 211.0 175.5 211.5 175.0 211.5 174.0 211.5 173.0 212.0 172.5 212.5 172.0 212.5 171.0 212.5 170.0 213.0 169.5 213.5 169.0 213.5 168.0 213.5 167.0 213.5 166.0 214.0 165.5 214.5 165.0 214.5 164.0 215.0 163.5 215.5 163.0 215.5 162.0 216.0 161.5 216.5 161.0 217.0 160.5 217.5 160.0 217.5 159.0 217.5 158.0 217.5 157.0 218.0 156.5 218.5 156.0 218.5 155.0 218.5 154.0 218.5 153.0 218.5 152.0 219.0 151.5 219.5 151.0 219.5 150.0 219.5 149.0 220.0 148.5 220.5 148.0 221.0 147.5 221.5 147.0 221.5 146.0 222.0 145.5 222.5 145.0 222.5 144.0 223.0 143.5 223.5 143.0 223.5 142.0 223.5 141.0 223.5 140.0 223.5 139.0 224.0 138.5 224.5 138.0 224.5 137.0 224.5 136.0 225.0 135.5 225.5 135.0 225.5 134.0 226.0 133.5 226.5 133.0 226.5 132.0 227.0 131.5 227.5 131.0 227.5 130.0 227.5 129.0 228.0 128.5 228.5 128.0 228.5 127.0 228.5 126.0 229.0 125.5 229.5 125.0 229.5 124.0 229.5 123.0 230.0 122.5 230.5 122.0 230.5 121.0 230.5 120.0 231.0 119.5 231.5 119.0 232.0 118.5 232.5 118.0 232.5 117.0 232.5 116.0 233.0 115.5 233.5 115.0 233.5 114.0 233.5 113.0 233.5 112.0 234.0 111.5 234.5 111.0 234.5 110.0 234.5 109.0 234.5 108.0 235.0 107.5 235.5 107.0 235.5 106.0 236.0 105.5 236.5 105.0 237.0 104.5 237.5 104.0 237.5 103.0 238.0 102.5 238.5 102.0 238.5 101.0 238.5 100.0 238.5 99.0 239.0 98.5 239.5 98.0 239.5 97.0 239.5 96.0 239.5 95.0 240.0 94.5 240.5 94.0 240.5 93.0 240.5 92.0 241.0 91.5 241.5 91.0 241.5 90.0 242.0 89.5 242.5 89.0 242.5 88.0 243.0 87.5 243.5 87.0 243.5 86.0 243.5 85.0 244.0 84.5 244.5 84.0 244.5 83.0 244.5 82.0 244.5 81.0 245.0 80.5 245.5 80.0 245.5 79.0 245.5 78.0 246.0 77.5 246.5 77.0 247.0 76.5 247.5 76.0 247.5 75.0 248.0 74.5 248.5 74.0 248.5 73.0 248.5 72.0 248.5 71.0 249.0 70.5 249.5 70.0 249.5 69.0 249.5 68.0 250.0 67.5 250.5 67.0 250.5 66.0 250.5 65.0 251.0 64.5 251.5 64.0 251.5 63.0 252.0 62.5 252.5 62.0 252.5 61.0 253.0 60.5 253.5 60.0 253.5 59.0 253.5 58.0 254.0 57.5 254.5 57.0 254.5 56.0 254.5 55.0 255.0 54.5 255.5 54.0 255.5 53.0 256.0 52.5 256.5 52.0 257.0 51.5 257.5 51.0 258.0 50.5 258.5 50.0 259.0 49.5 259.5 49.0 260.0 48.5 260.5 48.0 261.0 47.5 261.5 47.0 262.0 46.5 263.0 46.5 263.5 46.0 264.0 45.5 265.0 45.5 265.5 45.0 266.0 44.5 266.5 44.0 267.0 43.5 268.0 43.5 269.0 43.5 269.5 43.0 270.0 42.5 271.0 42.5 272.0 42.5 273.0 42.5 274.0 42.5 275.0 42.5 276.0 42.5 277.0 42.5 278.0 42.5 279.0 42.5 280.0 42.5 281.0 42.5 282.0 42.5 282.5 43.0 283.0 43.5 284.0 43.5 284.5 44.0 285.0 44.5 286.0 44.5 286.5 45.0 287.0 45.5 287.5 46.0 288.0 46.5 289.0 46.5 289.5 47.0 290.0 47.5 291.0 47.5 291.5 48.0 292.0 48.5 292.5 49.0 292.5 50.0 293.0 50.5 293.5 51.0 294.0 51.5 294.5 52.0 295.0 52.5 295.5 53.0 296.0 53.5 296.5 54.0 296.5 55.0 297.0 55.5 297.5 56.0 297.5 57.0 297.5 58.0 297.5 59.0 298.0 59.5 298.5 60.0 298.5 61.0 298.5 62.0 298.5 63.0 298.5 64.0 298.5 65.0 298.5 66.0 298.5 67.0 298.5 68.0 298.5 69.0 298.5 70.0 298.5 71.0 298.0 71.5 297.5 72.0 297.5 73.0 297.5 74.0 297.5 75.0 297.0 75.5 296.5 76.0 296.5 77.0 296.5 78.0 296.5 79.0 296.0 79.5 295.5 80.0 295.5 81.0 295.0 81.5 294.5 82.0 294.5 83.0 294.0 83.5 293.5 84.0 293.5 85.0 293.0 85.5 292.5 86.0 292.5 87.0 292.5 88.0 292.0 88.5 291.5 89.0 291.5 90.0 291.5 91.0 291.5 92.0 291.0 92.5 290.5 93.0 290.5 94.0 290.5 95.0 290.5 96.0 290.0 96.5 289.5 97.0 289.5 98.0 289.0 98.5 288.5 99.0 288.0 99.5 287.5 100.0 287.5 101.0 287.5 102.0 287.0 102.5 286.5 103.0 286.5 104.0 286.5 105.0 286.0 105.5 285.5 106.0 285.5 107.0 285.5 108.0 285.5 109.0 285.0 109.5 284.5 110.0 284.5 111.0 284.0 111.5 283.5 112.0 283.5 113.0 283.0 113.5 282.5 114.0 282.5 115.0 282.0 115.5 281.5 116.0 281.5 117.0 281.5 118.0 281.5 119.0 281.0 119.5 280.5 120.0 280.5 121.0 280.5 122.0 280.0 122.5 279.5 123.0 279.5 124.0 279.5 125.0 279.0 125.5 278.5 126.0 278.0 126.5 277.5 127.0 277.5 128.0 277.0 128.5 276.5 129.0 276.5 130.0 276.5 131.0 276.5 132.0 276.0 132.5 275.5 133.0 275.5 134.0 275.5 135.0 275.5 136.0 275.5 137.0 275.0 137.5 274.5 138.0 274.5 139.0 274.0 139.5 273.5 140.0 273.5 141.0 273.0 141.5 272.5 142.0 272.0 142.5 271.5 143.0 271.5 144.0 271.5 145.0 271.0 145.5 270.5 146.0 270.5 147.0 270.5 148.0 270.5 149.0 270.5 150.0 270.0 150.5 269.5 151.0 269.5 152.0 269.5 153.0 269.0 153.5 268.5 154.0 268.5 155.0 268.0 155.5 267.5 156.0 267.0 156.5 266.5 157.0 266.5 158.0 266.5 159.0 266.0 159.5 265.5 160.0 265.5 161.0 265.5 162.0 265.5 163.0 265.0 163.5 264.5 164.0 264.5 165.0 264.5 166.0 264.0 166.5 263.5 167.0 263.5 168.0 263.0 168.5 262.5 169.0 262.5 170.0 262.0 170.5 261.5 171.0 261.5 172.0 261.5 173.0 261.0 173.5 260.5 174.0 260.5 175.0 260.5 176.0 260.5 177.0 260.0 177.5 259.5 178.0 259.5 179.0 259.5 180.0 259.0 180.5 258.5 181.0 258.5 182.0 258.0 182.5 257.5 183.0 257.5 184.0 257.0 184.5 256.5 185.0 256.5 186.0 256.0 186.5 255.5 187.0 255.5 188.0 255.5 189.0 255.5 190.0 255.0 190.5 254.5 191.0 254.5 192.0 254.5 193.0 254.5 194.0 254.5 195.0 254.0 195.5 253.5 196.0 253.5 197.0 253.0 197.5 252.5 198.0 252.5 199.0 252.0 199.5 251.5 200.0 251.5 201.0 251.0 201.5 250.5 202.0 250.5 203.0 250.5 204.0 250.0 204.5 249.5 205.0 249.5 206.0 249.5 207.0 249.5 208.0 249.0 208.5 248.5 209.0 248.5 210.0 248.0 210.5 247.5 211.0 247.5 212.0 247.0 212.5 246.5 213.0 246.5 214.0 246.0 214.5 245.5 215.0 245.5 216.0 245.5 217.0 245.5 218.0 245.0 218.5 244.5 219.0 244.5 220.0 244.5 221.0 244.0 221.5 243.5 222.0 243.5 223.0 243.5 224.0 243.0 224.5 242.5 225.0 242.5 226.0 242.0 226.5 241.5 227.0 241.5 228.0 241.0 228.5 240.5 229.0 240.5 230.0 240.5 231.0 240.0 231.5 239.5 232.0 239.5 233.0 239.5 234.0 239.5 235.0 239.0 235.5 238.5 236.0 238.5 237.0 238.0 237.5 237.5 238.0 237.0 238.5 236.5 239.0 236.0 239.5 235.5 240.0 235.0 240.5 234.5 241.0 234.0 241.5 233.5 242.0 233.0 242.5 232.5 243.0 232.0 243.5 231.5 244.0 231.0 244.5 230.0 244.5 229.5 245.0 229.0 245.5 228.0 245.5 227.5 246.0 227.0 246.5 226.0 246.5 225.0 246.5 224.0 246.5 223.5 247.0 223.0 247.5" fill="none" stroke="black" /><polyline points="473.0 247.5 472.0 247.5 471.0 247.5 470.0 247.5 469.0 247.5 468.0 247.5 467.0 247.5 466.0 247.5 465.0 247.5 464.0 247.5 463.0 247.5 462.5 247.0 462.0 246.5 461.0 246.5 460.0 246.5 459.5 246.0 459.0 245.5 458.0 245.5 457.0 245.5 456.5 245.0 456.0 244.5 455.0 244.5 454.5 244.0 454.0 243.5 453.5 243.0 453.0 242.5 452.5 242.0 452.0 241.5 451.5 241.0 451.0 240.5 450.5 240.0 450.0 239.5 449.5 239.0 449.0 238.5 448.5 238.0 448.0 237.5 447.5 237.0 447.5 236.0 447.5 235.0 447.0 234.5 446.5 234.0 446.5 233.0 446.5 232.0 446.5 231.0 446.0 230.5 445.5 230.0 445.5 229.0 445.5 228.0 445.5 227.0 445.5 226.0 445.5 225.0 445.5 224.0 445.5 223.0 445.5 222.0 445.5 221.0 445.5 220.0 445.5 219.0 445.5 218.0 445.5 217.0 445.5 216.0 445.5 215.0 445.5 214.0 445.5 213.0 445.5 212.0 445.5 211.0 445.5 210.0 445.5 209.0 445.5 208.0 445.5 207.0 445.5 206.0 445.5 205.0 445.5 204.0 445.5 203.0 445.5 202.0 445.5 201.0 445.5 200.0 445.5 199.0 445.5 198.0 445.5 197.0 445.5 196.0 445.5 195.0 445.5 194.0 445.5 193.0 445.5 192.0 445.5 191.0 445.5 190.0 445.5 189.0 445.5 188.0 445.5 187.0 445.5 186.0 445.5 185.0 445.5 184.0 445.5 183.0 445.5 182.0 445.5 181.0 445.5 180.0 445.5 179.0 445.5 178.0 445.5 177.0 445.5 176.0 445.5 175.0 445.5 174.0 445.5 173.0 445.5 172.0 445.5 171.0 445.5 170.0 445.5 169.0 445.5 168.0 445.5 167.0 445.5 166.0 445.5 165.0 445.5 164.0 445.5 163.0 445.5 162.0 445.5 161.0 445.5 160.0 445.5 159.0 445.5 158.0 445.5 157.0 445.5 156.0 445.5 155.0 445.5 154.0 445.5 153.0 445.5 152.0 445.5 151.0 445.5 150.0 445.5 149.0 445.5 148.0 445.5 147.0 445.5 146.0 445.5 145.0 445.5 144.0 445.5 143.0 445.5 142.0 445.5 141.0 445.5 140.0 445.5 139.0 445.5 138.0 445.5 137.0 445.5 136.0 445.5 135.0 445.5 134.0 445.5 133.0 445.5 132.0 445.5 131.0 445.5 130.0 445.5 129.0 445.5 128.0 445.5 127.0 445.5 126.0 445.5 125.0 445.5 124.0 445.5 123.0 445.5 122.0 445.5 121.0 445.5 120.0 445.5 119.0 445.5 118.0 445.5 117.0 445.5 116.0 445.5 115.0 445.5 114.0 445.5 113.0 445.5 112.0 445.5 111.0 445.5 110.0 445.5 109.0 445.5 108.0 445.5 107.0 445.5 106.0 445.5 105.0 445.5 104.0 445.5 103.0 445.5 102.0 445.5 101.0 445.5 100.0 445.5 99.0 445.5 98.0 445.5 97.0 445.5 96.0 445.5 95.0 445.5 94.0 445.5 93.0 445.5 92.0 445.0 91.5 444.5 91.0 444.0 90.5 443.0 90.5 442.5 90.0 442.0 89.5 441.0 89.5 440.0 89.5 439.0 89.5 438.0 89.5 437.0 89.5 436.0 89.5 435.0 89.5 434.0 89.5 433.0 89.5 432.0 89.5 431.0 89.5 430.0 89.5 429.0 89.5 428.0 89.5 427.0 89.5 426.0 89.5 425.0 89.5 424.0 89.5 423.0 89.5 422.0 89.5 421.0 89.5 420.0 89.5 419.0 89.5 418.0 89.5 417.0 89.5 416.0 89.5 415.0 89.5 414.0 89.5 413.0 89.5 412.0 89.5 411.0 89.5 410.0 89.5 409.5 89.0 409.0 88.5 408.0 88.5 407.0 88.5 406.0 88.5 405.0 88.5 404.5 88.0 404.0 87.5 403.0 87.5 402.5 87.0 402.0 86.5 401.5 86.0 401.0 85.5 400.0 85.5 399.5 85.0 399.0 84.5 398.0 84.5 397.5 84.0 397.0 83.5 396.5 83.0 396.0 82.5 395.5 82.0 395.0 81.5 394.5 81.0 394.5 80.0 394.0 79.5 393.5 79.0 393.0 78.5 392.5 78.0 392.0 77.5 391.5 77.0 391.0 76.5 390.5 76.0 390.5 75.0 390.5 74.0 390.5 73.0 390.0 72.5 389.5 72.0 389.5 71.0 389.5 70.0 389.5 69.0 389.5 68.0 389.5 67.0 389.5 66.0 389.5 65.0 389.5 64.0 389.5 63.0 389.5 62.0 389.5 61.0 389.5 60.0 390.0 59.5 390.5 59.0 390.5 58.0 390.5 57.0 390.5 56.0 391.0 55.5 391.5 55.0 392.0 54.5 392.5 54.0 393.0 53.5 393.5 53.0 394.0 52.5 394.5 52.0 394.5 51.0 395.0 50.5 395.5 50.0 396.0 49.5 396.5 49.0 397.0 48.5 397.5 48.0 398.0 47.5 399.0 47.5 399.5 47.0 400.0 46.5 401.0 46.5 401.5 46.0 402.0 45.5 402.5 45.0 403.0 44.5 404.0 44.5 404.5 44.0 405.0 43.5 406.0 43.5 407.0 43.5 407.5 43.0 408.0 42.5 409.0 42.5 410.0 42.5 411.0 42.5 412.0 42.5 413.0 42.5 414.0 42.5 415.0 42.5 416.0 42.5 417.0 42.5 418.0 42.5 419.0 42.5 420.0 42.5 421.0 42.5 422.0 42.5 423.0 42.5 424.0 42.5 425.0 42.5 426.0 42.5 427.0 42.5 428.0 42.5 429.0 42.5 430.0 42.5 431.0 42.5 432.0 42.5 433.0 42.5 434.0 42.5 435.0 42.5 436.0 42.5 437.0 42.5 438.0 42.5 439.0 42.5 440.0 42.5 441.0 42.5 442.0 42.5 443.0 42.5 444.0 42.5 445.0 42.5 446.0 42.5 447.0 42.5 448.0 42.5 449.0 42.5 450.0 42.5 451.0 42.5 452.0 42.5 453.0 42.5 454.0 42.5 455.0 42.5 456.0 42.5 457.0 42.5 458.0 42.5 459.0 42.5 460.0 42.5 461.0 42.5 462.0 42.5 463.0 42.5 464.0 42.5 465.0 42.5 466.0 42.5 467.0 42.5 468.0 42.5 469.0 42.5 470.0 42.5 471.0 42.5 472.0 42.5 473.0 42.5 474.0 42.5 475.0 42.5 476.0 42.5 477.0 42.5 478.0 42.5 479.0 42.5 480.0 42.5 481.0 42.5 482.0 42.5 483.0 42.5 484.0 42.5 485.0 42.5 486.0 42.5 487.0 42.5 488.0 42.5 489.0 42.5 490.0 42.5 491.0 42.5 492.0 42.5 493.0 42.5 494.0 42.5 495.0 42.5 496.0 42.5 497.0 42.5 498.0 42.5 499.0 42.5 500.0 42.5 501.0 42.5 502.0 42.5 503.0 42.5 504.0 42.5 505.0 42.5 506.0 42.5 507.0 42.5 508.0 42.5 509.0 42.5 510.0 42.5 511.0 42.5 512.0 42.5 513.0 42.5 514.0 42.5 515.0 42.5 516.0 42.5 517.0 42.5 518.0 42.5 519.0 42.5 520.0 42.5 521.0 42.5 522.0 42.5 523.0 42.5 524.0 42.5 525.0 42.5 526.0 42.5 527.0 42.5 528.0 42.5 529.0 42.5 529.5 43.0 530.0 43.5 531.0 43.5 532.0 43.5 532.5 44.0 533.0 44.5 533.5 45.0 534.0 45.5 535.0 45.5 535.5 46.0 536.0 46.5 537.0 46.5 537.5 47.0 538.0 47.5 539.0 47.5 539.5 48.0 540.0 48.5 540.5 49.0 540.5 50.0 541.0 50.5 541.5 51.0 542.0 51.5 542.5 52.0 542.5 53.0 543.0 53.5 543.5 54.0 544.0 54.5 544.5 55.0 545.0 55.5 545.5 56.0 545.5 57.0 545.5 58.0 546.0 58.5 546.5 59.0 546.5 60.0 546.5 61.0 546.5 62.0 546.5 63.0 546.5 64.0 546.5 65.0 546.5 66.0 546.5 67.0 546.5 68.0 546.5 69.0 546.5 70.0 546.5 71.0 546.5 72.0 546.5 73.0 546.0 73.5 545.5 74.0 545.5 75.0 545.5 76.0 545.0 76.5 544.5 77.0 544.0 77.5 543.5 78.0 543.0 78.5 542.5 79.0 542.5 80.0 542.0 80.5 541.5 81.0 541.0 81.5 540.5 82.0 540.5 83.0 540.0 83.5 539.0 83.5 538.5 84.0 538.0 84.5 537.0 84.5 536.5 85.0 536.0 85.5 535.5 86.0 535.0 86.5 534.5 87.0 534.0 87.5 533.0 87.5 532.5 88.0 532.0 88.5 531.0 88.5 530.0 88.5 529.0 88.5 528.0 88.5 527.0 88.5 526.5 89.0 526.0 89.5 525.0 89.5 524.0 89.5 523.0 89.5 522.0 89.5 521.0 89.5 520.0 89.5 519.0 89.5 518.0 89.5 517.0 89.5 516.0 89.5 515.0 89.5 514.0 89.5 513.0 89.5 512.0 89.5 511.0 89.5 510.0 89.5 509.0 89.5 508.0 89.5 507.0 89.5 506.0 89.5 505.0 89.5 504.0 89.5 503.0 89.5 502.0 89.5 501.0 89.5 500.0 89.5 499.0 89.5 498.0 89.5 497.0 89.5 496.0 89.5 495.0 89.5 494.5 90.0 494.0 90.5 493.0 90.5 492.5 91.0 492.0 91.5 491.5 92.0 491.5 93.0 491.5 94.0 491.5 95.0 491.5 96.0 491.5 97.0 491.5 98.0 491.5 99.0 491.5 100.0 491.5 101.0 491.5 102.0 491.5 103.0 491.5 104.0 491.5 105.0 491.5 106.0 491.5 107.0 491.5 108.0 491.5 109.0 491.5 110.0 491.5 111.0 491.5 112.0 491.5 113.0 491.5 114.0 491.5 115.0 491.5 116.0 491.5 117.0 491.5 118.0 491.5 119.0 491.5 120.0 491.5 121.0 491.5 122.0 491.5 123.0 491.5 124.0 491.5 125.0 491.5 126.0 491.5 127.0 491.5 128.0 491.5 129.0 491.5 130.0 491.5 131.0 491.5 132.0 491.5 133.0 491.5 134.0 491.5 135.0 491.5 136.0 491.5 137.0 491.5 138.0 491.5 139.0 491.5 140.0 491.5 141.0 491.5 142.0 491.5 143.0 491.5 144.0 491.5 145.0 491.5 146.0 491.5 147.0 491.5 148.0 491.5 149.0 491.5 150.0 491.5 151.0 491.5 152.0 491.5 153.0 491.5 154.0 491.5 155.0 491.5 156.0 491.5 157.0 491.5 158.0 491.5 159.0 491.5 160.0 491.5 161.0 491.5 162.0 491.5 163.0 491.5 164.0 491.5 165.0 491.5 166.0 491.5 167.0 491.5 168.0 491.5 169.0 491.5 170.0 491.5 171.0 491.5 172.0 491.5 173.0 491.5 174.0 491.5 175.0 491.5 176.0 491.5 177.0 491.5 178.0 491.5 179.0 491.5 180.0 491.5 181.0 491.5 182.0 491.5 183.0 491.5 184.0 491.5 185.0 491.5 186.0 491.5 187.0 491.5 188.0 491.5 189.0 491.5 190.0 491.5 191.0 491.5 192.0 491.5 193.0 491.5 194.0 491.5 195.0 491.5 196.0 491.5 197.0 491.5 198.0 491.5 199.0 491.5 200.0 491.5 201.0 491.5 202.0 491.5 203.0 491.5 204.0 491.5 205.0 491.5 206.0 491.5 207.0 491.5 208.0 491.5 209.0 491.5 210.0 491.5 211.0 491.5 212.0 491.5 213.0 491.5 214.0 491.5 215.0 491.5 216.0 491.5 217.0 491.5 218.0 491.5 219.0 491.5 220.0 491.5 221.0 491.5 222.0 491.5 223.0 491.5 224.0 491.5 225.0 491.5 226.0 491.5 227.0 491.5 228.0 491.0 228.5 490.5 229.0 490.5 230.0 490.5 231.0 490.5 232.0 490.0 232.5 489.5 233.0 489.5 234.0 489.5 235.0 489.0 235.5 488.5 236.0 488.5 237.0 488.0 237.5 487.5 238.0 487.0 238.5 486.5 239.0 486.0 239.5 485.5 240.0 485.0 240.5 484.5 241.0 484.0 241.5 483.5 242.0 483.0 242.5 482.5 243.0 482.0 243.5 481.5 244.0 481.0 244.5 480.0 244.5 479.5 245.0 479.0 245.5 478.0 245.5 477.5 246.0 477.0 246.5 476.0 246.5 475.0 246.5 474.0 246.5 473.5 247.0 473.0 247.5" fill="none" stroke="black" /><polyline points="606.0 248.5 605.5 248.0 605.0 247.5 604.0 247.5 603.0 247.5 602.0 247.5 601.0 247.5 600.5 247.0 600.0 246.5 599.0 246.5 598.0 246.5 597.5 246.0 597.0 245.5 596.0 245.5 595.0 245.5 594.5 245.0 594.0 244.5 593.5 244.0 593.0 243.5 592.5 243.0 592.0 242.5 591.5 242.0 591.0 241.5 590.5 241.0 590.0 240.5 589.0 240.5 588.5 240.0 588.0 239.5 587.5 239.0 587.5 238.0 587.0 237.5 586.5 237.0 586.5 236.0 586.5 235.0 586.0 234.5 585.5 234.0 585.0 233.5 584.5 233.0 584.5 232.0 584.0 231.5 583.5 231.0 583.5 230.0 583.5 229.0 583.5 228.0 583.0 227.5 582.5 227.0 582.5 226.0 582.5 225.0 582.5 224.0 582.5 223.0 583.0 222.5 583.5 222.0 583.5 221.0 583.5 220.0 583.5 219.0 584.0 218.5 584.5 218.0 584.5 217.0 584.5 216.0 585.0 215.5 585.5 215.0 585.5 214.0 586.0 213.5 586.5 213.0 586.5 212.0 586.5 211.0 586.5 210.0 587.0 209.5 587.5 209.0 587.5 208.0 587.5 207.0 588.0 206.5 588.5 206.0 588.5 205.0 588.5 204.0 589.0 203.5 589.5 203.0 590.0 202.5 590.5 202.0 590.5 201.0 591.0 200.5 591.5 200.0 591.5 199.0 591.5 198.0 592.0 197.5 592.5 197.0 592.5 196.0 592.5 195.0 592.5 194.0 592.5 193.0 593.0 192.5 593.5 192.0 593.5 191.0 593.5 190.0 594.0 189.5 594.5 189.0 594.5 188.0 595.0 187.5 595.5 187.0 595.5 186.0 596.0 185.5 596.5 185.0 596.5 184.0 597.0 183.5 597.5 183.0 597.5 182.0 597.5 181.0 597.5 180.0 598.0 179.5 598.5 179.0 598.5 178.0 598.5 177.0 599.0 176.5 599.5 176.0 599.5 175.0 599.5 174.0 600.0 173.5 600.5 173.0 601.0 172.5 601.5 172.0 601.5 171.0 601.5 170.0 602.0 169.5 602.5 169.0 602.5 168.0 602.5 167.0 603.0 166.5 603.5 166.0 603.5 165.0 603.5 164.0 603.5 163.0 604.0 162.5 604.5 162.0 604.5 161.0 605.0 160.5 605.5 160.0 606.0 159.5 606.5 159.0 606.5 158.0 606.5 157.0 607.0 156.5 607.5 156.0 607.5 155.0 607.5 154.0 607.5 153.0 608.0 152.5 608.5 152.0 608.5 151.0 608.5 150.0 608.5 149.0 609.0 148.5 609.5 148.0 609.5 147.0 609.5 146.0 610.0 145.5 610.5 145.0 611.0 144.5 611.5 144.0 611.5 143.0 612.0 142.5 612.5 142.0 612.5 141.0 612.5 140.0 613.0 139.5 613.5 139.0 613.5 138.0 613.5 137.0 613.5 136.0 614.0 135.5 614.5 135.0 614.5 134.0 614.5 133.0 615.0 132.5 615.5 132.0 615.5 131.0 616.0 130.5 616.5 130.0 616.5 129.0 617.0 128.5 617.5 128.0 617.5 127.0 617.5 126.0 618.0 125.5 618.5 125.0 618.5 124.0 618.5 123.0 619.0 122.5 619.5 122.0 619.5 121.0 619.5 120.0 619.5 119.0 620.0 118.5 620.5 118.0 620.5 117.0 621.0 116.5 621.5 116.0 621.5 115.0 622.0 114.5 622.5 114.0 622.5 113.0 622.5 112.0 623.0 111.5 623.5 111.0 623.5 110.0 623.5 109.0 623.5 108.0 624.0 107.5 624.5 107.0 624.5 106.0 624.5 105.0 625.0 104.5 625.5 104.0 625.5 103.0 626.0 102.5 626.5 102.0 627.0 101.5 627.5 101.0 627.5 100.0 627.5 99.0 628.0 98.5 628.5 98.0 628.5 97.0 628.5 96.0 628.5 95.0 629.0 94.5 629.5 94.0 629.5 93.0 629.5 92.0 629.5 91.0 630.0 90.5 630.5 90.0 630.5 89.0 631.0 88.5 631.5 88.0 632.0 87.5 632.5 87.0 632.5 86.0 633.0 85.5 633.5 85.0 633.5 84.0 633.5 83.0 633.5 82.0 634.0 81.5 634.5 81.0 634.5 80.0 634.5 79.0 634.5 78.0 634.5 77.0 635.0 76.5 635.5 76.0 635.5 75.0 636.0 74.5 636.5 74.0 636.5 73.0 637.0 72.5 637.5 72.0 637.5 71.0 638.0 70.5 638.5 70.0 638.5 69.0 638.5 68.0 639.0 67.5 639.5 67.0 639.5 66.0 639.5 65.0 639.5 64.0 640.0 63.5 640.5 63.0 640.5 62.0 640.5 61.0 641.0 60.5 641.5 60.0 642.0 59.5 642.5 59.0 642.5 58.0 643.0 57.5 643.5 57.0 643.5 56.0 643.5 55.0 644.0 54.5 644.5 54.0 644.5 53.0 645.0 52.5 645.5 52.0 646.0 51.5 646.5 51.0 647.0 50.5 647.5 50.0 648.0 49.5 648.5 49.0 649.0 48.5 649.5 48.0 650.0 47.5 650.5 47.0 651.0 46.5 652.0 46.5 652.5 46.0 653.0 45.5 654.0 45.5 654.5 45.0 655.0 44.5 655.5 44.0 656.0 43.5 657.0 43.5 657.5 43.0 658.0 42.5 659.0 42.5 660.0 42.5 661.0 42.5 662.0 42.5 663.0 42.5 664.0 42.5 665.0 42.5 666.0 42.5 667.0 42.5 668.0 42.5 669.0 42.5 670.0 42.5 671.0 42.5 671.5 43.0 672.0 43.5 673.0 43.5 673.5 44.0 674.0 44.5 675.0 44.5 675.5 45.0 676.0 45.5 676.5 46.0 677.0 46.5 678.0 46.5 678.5 47.0 679.0 47.5 680.0 47.5 680.5 48.0 681.0 48.5 681.5 49.0 681.5 50.0 682.0 50.5 682.5 51.0 683.0 51.5 683.5 52.0 684.0 52.5 684.5 53.0 685.0 53.5 685.5 54.0 685.5 55.0 686.0 55.5 686.5 56.0 686.5 57.0 686.5 58.0 686.5 59.0 687.0 59.5 687.5 60.0 687.5 61.0 687.5 62.0 687.5 63.0 687.5 64.0 687.5 65.0 687.5 66.0 687.5 67.0 687.5 68.0 687.5 69.0 687.5 70.0 687.5 71.0 687.0 71.5 686.5 72.0 686.5 73.0 686.5 74.0 686.5 75.0 686.5 76.0 686.0 76.5 685.5 77.0 685.5 78.0 685.5 79.0 685.0 79.5 684.5 80.0 684.0 80.5 683.5 81.0 683.5 82.0 683.0 82.5 682.5 83.0 682.5 84.0 682.5 85.0 682.0 85.5 681.5 86.0 681.5 87.0 681.5 88.0 681.5 89.0 681.0 89.5 680.5 90.0 680.5 91.0 680.5 92.0 680.0 92.5 679.5 93.0 679.5 94.0 679.0 94.5 678.5 95.0 678.5 96.0 678.0 96.5 677.5 97.0 677.5 98.0 677.0 98.5 676.5 99.0 676.5 100.0 676.5 101.0 676.5 102.0 676.0 102.5 675.5 103.0 675.5 104.0 675.5 105.0 675.0 105.5 674.5 106.0 674.5 107.0 674.5 108.0 674.0 108.5 673.5 109.0 673.0 109.5 672.5 110.0 672.5 111.0 672.5 112.0 672.0 112.5 671.5 113.0 671.5 114.0 671.5 115.0 671.5 116.0 671.0 116.5 670.5 117.0 670.5 118.0 670.5 119.0 670.0 119.5 669.5 120.0 669.5 121.0 669.5 122.0 669.0 122.5 668.5 123.0 668.0 123.5 667.5 124.0 667.5 125.0 667.0 125.5 666.5 126.0 666.5 127.0 666.5 128.0 666.5 129.0 666.0 129.5 665.5 130.0 665.5 131.0 665.5 132.0 665.5 133.0 665.5 134.0 665.0 134.5 664.5 135.0 664.5 136.0 664.0 136.5 663.5 137.0 663.0 137.5 662.5 138.0 662.5 139.0 662.0 139.5 661.5 140.0 661.5 141.0 661.5 142.0 661.0 142.5 660.5 143.0 660.5 144.0 660.5 145.0 660.5 146.0 660.0 146.5 659.5 147.0 659.5 148.0 659.5 149.0 659.0 149.5 658.5 150.0 658.5 151.0 658.0 151.5 657.5 152.0 657.5 153.0 657.0 153.5 656.5 154.0 656.5 155.0 656.5 156.0 656.0 156.5 655.5 157.0 655.5 158.0 655.5 159.0 655.5 160.0 655.0 160.5 654.5 161.0 654.5 162.0 654.5 163.0 654.0 163.5 653.5 164.0 653.5 165.0 653.0 165.5 652.5 166.0 652.5 167.0 652.0 167.5 651.5 168.0 651.5 169.0 651.0 169.5 650.5 170.0 650.5 171.0 650.5 172.0 650.5 173.0 650.5 174.0 650.0 174.5 649.5 175.0 649.5 176.0 649.5 177.0 649.0 177.5 648.5 178.0 648.5 179.0 648.5 180.0 648.0 180.5 647.5 181.0 647.0 181.5 646.5 182.0 646.5 183.0 646.0 183.5 645.5 184.0 645.5 185.0 645.5 186.0 645.5 187.0 645.0 187.5 644.5 188.0 644.5 189.0 644.5 190.0 644.5 191.0 644.0 191.5 643.5 192.0 643.5 193.0 643.5 194.0 643.0 194.5 642.5 195.0 642.0 195.5 641.5 196.0 641.5 197.0 641.0 197.5 640.5 198.0 640.5 199.0 640.5 200.0 640.0 200.5 639.5 201.0 639.5 202.0 639.5 203.0 639.5 204.0 639.0 204.5 638.5 205.0 638.5 206.0 638.5 207.0 638.0 207.5 637.5 208.0 637.5 209.0 637.0 209.5 636.5 210.0 636.5 211.0 636.0 211.5 635.5 212.0 635.5 213.0 635.5 214.0 635.0 214.5 634.5 215.0 634.5 216.0 634.5 217.0 634.5 218.0 634.5 219.0 634.0 219.5 633.5 220.0 633.5 221.0 633.0 221.5 632.5 222.0 632.5 223.0 632.0 223.5 631.5 224.0 631.5 225.0 631.0 225.5 630.5 226.0 630.5 227.0 630.5 228.0 630.0 228.5 629.5 229.0 629.5 230.0 629.5 231.0 629.5 232.0 629.0 232.5 628.5 233.0 628.5 234.0 628.0 234.5 627.5 235.0 627.5 236.0 627.0 236.5 626.5 237.0 626.0 237.5 625.5 238.0 625.0 238.5 624.5 239.0 624.5 240.0 624.0 240.5 623.5 241.0 623.0 241.5 622.0 241.5 621.5 242.0 621.0 242.5 620.5 243.0 620.0 243.5 619.5 244.0 619.0 244.5 618.5 245.0 618.0 245.5 617.0 245.5 616.0 245.5 615.5 246.0 615.0 246.5 614.0 246.5 613.0 246.5 612.5 247.0 612.0 247.5 611.0 247.5 610.0 247.5 609.0 247.5 608.0 247.5 607.0 247.5 606.5 248.0 606.0 248.5" fill="none" stroke="black" /><polyline points="347.0 247.5 346.0 247.5 345.0 247.5 344.0 247.5 343.0 247.5 342.0 247.5 341.0 247.5 340.0 247.5 339.0 247.5 338.0 247.5 337.0 247.5 336.5 247.0 336.0 246.5 335.0 246.5 334.0 246.5 333.5 246.0 333.0 245.5 332.0 245.5 331.0 245.5 330.5 245.0 330.0 244.5 329.0 244.5 328.5 244.0 328.0 243.5 327.5 243.0 327.0 242.5 326.5 242.0 326.0 241.5 325.5 241.0 325.0 240.5 324.5 240.0 324.0 239.5 323.5 239.0 323.0 238.5 322.5 238.0 322.0 237.5 321.5 237.0 321.5 236.0 321.5 235.0 321.0 234.5 320.5 234.0 320.0 233.5 319.5 233.0 319.0 232.5 318.5 232.0 318.5 231.0 318.0 230.5 317.5 230.0 317.5 229.0 317.5 228.0 317.0 227.5 316.5 227.0 316.5 226.0 316.0 225.5 315.5 225.0 315.5 224.0 315.0 223.5 314.5 223.0 314.0 222.5 313.5 222.0 313.0 221.5 312.5 221.0 312.5 220.0 312.0 219.5 311.5 219.0 311.5 218.0 311.5 217.0 311.0 216.5 310.5 216.0 310.5 215.0 310.0 214.5 309.5 214.0 309.0 213.5 308.5 213.0 308.0 212.5 307.5 212.0 307.5 211.0 307.0 210.5 306.5 210.0 306.5 209.0 306.5 208.0 306.0 207.5 305.5 207.0 305.5 206.0 305.0 205.5 304.5 205.0 304.0 204.5 303.5 204.0 303.0 203.5 302.5 203.0 302.5 202.0 302.5 201.0 302.0 200.5 301.5 200.0 301.5 199.0 301.0 198.5 300.5 198.0 300.5 197.0 300.0 196.5 299.5 196.0 299.0 195.5 298.5 195.0 298.5 194.0 298.0 193.5 297.5 193.0 297.5 192.0 297.0 191.5 296.5 191.0 296.5 190.0 296.0 189.5 295.5 189.0 295.5 188.0 295.0 187.5 294.5 187.0 294.5 186.0 294.0 185.5 293.5 185.0 293.0 184.5 292.5 184.0 292.5 183.0 292.5 182.0 292.0 181.5 291.5 181.0 291.5 180.0 291.5 179.0 291.5 178.0 291.5 177.0 291.5 176.0 291.5 175.0 291.5 174.0 291.5 173.0 291.5 172.0 291.5 171.0 291.5 170.0 292.0 169.5 292.5 169.0 292.5 168.0 293.0 167.5 293.5 167.0 294.0 166.5 294.5 166.0 294.5 165.0 295.0 164.5 295.5 164.0 295.5 163.0 296.0 162.5 296.5 162.0 297.0 161.5 297.5 161.0 297.5 160.0 298.0 159.5 298.5 159.0 299.0 158.5 299.5 158.0 300.0 157.5 301.0 157.5 301.5 157.0 302.0 156.5 302.5 156.0 303.0 155.5 304.0 155.5 304.5 155.0 305.0 154.5 306.0 154.5 306.5 154.0 307.0 153.5 308.0 153.5 308.5 153.0 309.0 152.5 310.0 152.5 311.0 152.5 312.0 152.5 313.0 152.5 314.0 152.5 314.5 152.0 315.0 151.5 315.5 152.0 316.0 152.5 317.0 152.5 318.0 152.5 319.0 152.5 320.0 152.5 321.0 152.5 321.5 153.0 322.0 153.5 323.0 153.5 323.5 154.0 324.0 154.5 325.0 154.5 325.5 155.0 326.0 155.5 327.0 155.5 327.5 156.0 328.0 156.5 329.0 156.5 329.5 157.0 330.0 157.5 330.5 158.0 331.0 158.5 331.5 159.0 332.0 159.5 332.5 160.0 333.0 160.5 333.5 161.0 333.5 162.0 334.0 162.5 334.5 163.0 334.5 164.0 335.0 164.5 335.5 165.0 336.0 165.5 336.5 166.0 337.0 166.5 337.5 167.0 337.5 168.0 338.0 168.5 338.5 169.0 338.5 170.0 339.0 170.5 339.5 171.0 339.5 172.0 340.0 172.5 340.5 173.0 341.0 173.5 341.5 174.0 341.5 175.0 342.0 175.5 342.5 176.0 342.5 177.0 343.0 177.5 343.5 178.0 343.5 179.0 343.5 180.0 344.0 180.5 344.5 181.0 344.5 182.0 345.0 182.5 345.5 183.0 346.0 183.5 346.5 184.0 347.0 184.5 347.5 185.0 347.5 186.0 348.0 186.5 348.5 187.0 348.5 188.0 348.5 189.0 349.0 189.5 349.5 190.0 349.5 191.0 350.0 191.5 350.5 192.0 351.0 192.5 351.5 193.0 352.0 193.5 352.5 194.0 352.5 195.0 353.0 195.5 353.5 196.0 353.5 197.0 354.0 197.5 354.5 198.0 354.5 199.0 354.5 200.0 355.0 200.5 355.5 201.0 355.5 202.0 356.0 202.5 356.5 203.0 357.0 203.5 357.5 204.0 358.0 204.5 358.5 205.0 358.5 206.0 358.5 207.0 359.0 207.5 359.5 208.0 359.5 209.0 360.0 209.5 360.5 210.0 361.0 210.5 361.5 211.0 361.5 212.0 362.0 212.5 362.5 213.0 363.0 213.5 363.5 214.0 363.5 215.0 363.5 216.0 364.0 216.5 364.5 217.0 364.5 218.0 364.5 219.0 364.5 220.0 364.5 221.0 364.5 222.0 364.5 223.0 364.5 224.0 364.5 225.0 364.5 226.0 364.5 227.0 364.5 228.0 364.5 229.0 364.5 230.0 364.5 231.0 364.5 232.0 364.0 232.5 363.5 233.0 363.5 234.0 363.5 235.0 363.0 235.5 362.5 236.0 362.0 236.5 361.5 237.0 361.0 237.5 360.5 238.0 360.5 239.0 360.0 239.5 359.5 240.0 359.0 240.5 358.5 241.0 358.0 241.5 357.5 242.0 357.0 242.5 356.5 243.0 356.0 243.5 355.5 244.0 355.0 244.5 354.0 244.5 353.5 245.0 353.0 245.5 352.0 245.5 351.5 246.0 351.0 246.5 350.0 246.5 349.0 246.5 348.0 246.5 347.5 247.0 347.0 247.5" fill="none" stroke="black" /><polyline points="731.0 248.5 730.5 248.0 730.0 247.5 729.0 247.5 728.0 247.5 727.0 247.5 726.0 247.5 725.0 247.5 724.5 247.0 724.0 246.5 723.0 246.5 722.0 246.5 721.5 246.0 721.0 245.5 720.0 245.5 719.0 245.5 718.5 245.0 718.0 244.5 717.5 244.0 717.0 243.5 716.5 243.0 716.0 242.5 715.5 242.0 715.0 241.5 714.5 241.0 714.0 240.5 713.5 240.0 713.0 239.5 712.5 239.0 712.0 238.5 711.5 238.0 711.5 237.0 711.0 236.5 710.5 236.0 710.0 235.5 709.5 235.0 709.0 234.5 708.5 234.0 708.5 233.0 708.0 232.5 707.5 232.0 707.5 231.0 707.0 230.5 706.5 230.0 706.5 229.0 706.5 228.0 706.0 227.5 705.5 227.0 705.0 226.5 704.5 226.0 704.0 225.5 703.5 225.0 703.5 224.0 703.0 223.5 702.5 223.0 702.5 222.0 702.0 221.5 701.5 221.0 701.5 220.0 701.5 219.0 701.0 218.5 700.5 218.0 700.5 217.0 700.0 216.5 699.5 216.0 699.0 215.5 698.5 215.0 698.0 214.5 697.5 214.0 697.5 213.0 697.0 212.5 696.5 212.0 696.5 211.0 696.5 210.0 696.0 209.5 695.5 209.0 695.5 208.0 695.0 207.5 694.5 207.0 694.0 206.5 693.5 206.0 693.0 205.5 692.5 205.0 692.5 204.0 692.0 203.5 691.5 203.0 691.5 202.0 691.5 201.0 691.0 200.5 690.5 200.0 690.5 199.0 690.0 198.5 689.5 198.0 689.0 197.5 688.5 197.0 688.0 196.5 687.5 196.0 687.5 195.0 687.0 194.5 686.5 194.0 686.5 193.0 686.5 192.0 686.0 191.5 685.5 191.0 685.5 190.0 685.0 189.5 684.5 189.0 684.5 188.0 684.0 187.5 683.5 187.0 683.0 186.5 682.5 186.0 682.5 185.0 682.0 184.5 681.5 184.0 681.5 183.0 681.5 182.0 681.0 181.5 680.5 181.0 680.5 180.0 680.5 179.0 680.5 178.0 680.5 177.0 680.5 176.0 680.5 175.0 680.5 174.0 680.5 173.0 680.5 172.0 680.5 171.0 681.0 170.5 681.5 170.0 681.5 169.0 681.5 168.0 681.5 167.0 682.0 166.5 682.5 166.0 683.0 165.5 683.5 165.0 684.0 164.5 684.5 164.0 684.5 163.0 685.0 162.5 685.5 162.0 686.0 161.5 686.5 161.0 686.5 160.0 687.0 159.5 687.5 159.0 688.0 158.5 688.5 158.0 689.0 157.5 689.5 157.0 690.0 156.5 691.0 156.5 691.5 156.0 692.0 155.5 693.0 155.5 693.5 155.0 694.0 154.5 695.0 154.5 695.5 154.0 696.0 153.5 697.0 153.5 697.5 153.0 698.0 152.5 699.0 152.5 700.0 152.5 701.0 152.5 702.0 152.5 703.0 152.5 704.0 152.5 705.0 152.5 706.0 152.5 707.0 152.5 708.0 152.5 709.0 152.5 710.0 152.5 710.5 153.0 711.0 153.5 712.0 153.5 712.5 154.0 713.0 154.5 714.0 154.5 714.5 155.0 715.0 155.5 716.0 155.5 716.5 156.0 717.0 156.5 717.5 157.0 718.0 157.5 719.0 157.5 719.5 158.0 720.0 158.5 720.5 159.0 721.0 159.5 721.5 160.0 722.0 160.5 722.5 161.0 722.5 162.0 723.0 162.5 723.5 163.0 723.5 164.0 724.0 164.5 724.5 165.0 724.5 166.0 725.0 166.5 726.0 166.5 726.5 167.0 726.5 168.0 727.0 168.5 727.5 169.0 727.5 170.0 728.0 170.5 728.5 171.0 728.5 172.0 729.0 172.5 729.5 173.0 729.5 174.0 729.5 175.0 730.0 175.5 730.5 176.0 731.0 176.5 731.5 177.0 732.0 177.5 732.5 178.0 732.5 179.0 733.0 179.5 733.5 180.0 733.5 181.0 733.5 182.0 734.0 182.5 734.5 183.0 734.5 184.0 735.0 184.5 735.5 185.0 736.0 185.5 736.5 186.0 737.0 186.5 737.5 187.0 737.5 188.0 738.0 188.5 738.5 189.0 738.5 190.0 738.5 191.0 739.0 191.5 739.5 192.0 739.5 193.0 740.0 193.5 740.5 194.0 740.5 195.0 741.0 195.5 741.5 196.0 742.0 196.5 742.5 197.0 743.0 197.5 743.5 198.0 743.5 199.0 743.5 200.0 744.0 200.5 744.5 201.0 744.5 202.0 745.0 202.5 745.5 203.0 745.5 204.0 746.0 204.5 746.5 205.0 747.0 205.5 747.5 206.0 748.0 206.5 748.5 207.0 748.5 208.0 749.0 208.5 749.5 209.0 749.5 210.0 749.5 211.0 750.0 211.5 750.5 212.0 750.5 213.0 751.0 213.5 751.5 214.0 752.0 214.5 752.5 215.0 752.5 216.0 753.0 216.5 753.5 217.0 753.5 218.0 753.5 219.0 753.5 220.0 753.5 221.0 753.5 222.0 753.5 223.0 753.5 224.0 753.5 225.0 753.5 226.0 754.0 226.5 754.5 227.0 754.0 227.5 753.5 228.0 753.5 229.0 753.5 230.0 753.5 231.0 753.5 232.0 753.0 232.5 752.5 233.0 752.5 234.0 752.0 234.5 751.5 235.0 751.0 235.5 750.5 236.0 750.5 237.0 750.0 237.5 749.5 238.0 749.5 239.0 749.0 239.5 748.5 240.0 748.0 240.5 747.5 241.0 747.0 241.5 746.0 241.5 745.5 242.0 745.0 242.5 744.5 243.0 744.0 243.5 743.5 244.0 743.0 244.5 742.5 245.0 742.0 245.5 741.0 245.5 740.0 245.5 739.5 246.0 739.0 246.5 738.0 246.5 737.0 246.5 736.5 247.0 736.0 247.5 735.0 247.5 734.0 247.5 733.0 247.5 732.0 247.5 731.5 248.0 731.0 248.5" fill="none" stroke="black" /></svg>